<svg width="127" height="109" viewBox="0 0 127 109" xmlns="http://www.w3.org/2000/svg">
<path d="M32.5326 109C0.0325775 109 0.0325893 88 0.0325799 73H30.5326C30.5326 78.5 30.5326 84.5 38.5326 84.5H88.0326C91.0326 84.6667 95.0326 83 95.0326 75.5C95.0326 68 88.5326 68.5 84.5326 68.5L20.5326 65.5C13.3659 64.5 -0.767423 57 0.0325766 35C0.0325685 20.5 3.43256 0 33.0326 0L97.2749 0.5C105.775 0.5 122.533 6 122.533 26V34.5H91.5326C91.8659 31 90.3326 24 81.5326 24H39.0326C36.1992 24 30.5326 25.8 30.5326 33C30.5326 35.3333 32.3326 40 39.5326 40L91.0326 41.5C103.033 41.5 126.533 43.5 126.533 73C126.533 101 111.533 109 104.033 109H32.5326Z" fill="#000000"/>
</svg>
